HIERARCHY
ROOT Pelvis
{
	OFFSET 0.000000 0.000000 0.000000
	CHANNELS 6 Xposition Yposition Zposition Xrotation Yrotation Zrotation
	JOINT LeftUpLeg_virtual
	{
		OFFSET 0.000000 0.000000 0.000000
		CHANNELS 3 Xrotation Yrotation Zrotation
		JOINT LeftUpLeg
		{
			OFFSET 18.735201 -5.666702 -4.541200
			CHANNELS 3 Xrotation Yrotation Zrotation
			JOINT LeftLeg
			{
				OFFSET -0.021200 -31.938179 0.493100
				CHANNELS 3 Xrotation Yrotation Zrotation
				JOINT LeftFoot
				{
					OFFSET 0.021200 -31.938179 -4.336299
					CHANNELS 3 Xrotation Yrotation Zrotation
					JOINT LeftToeBase
					{
						OFFSET 0.943001 -26.722000 15.023500
						CHANNELS 3 Xrotation Yrotation Zrotation
						End Site
						{
							OFFSET 0 0 0
						}
					}
				}
			}
		}
	}
	JOINT RightUpLeg_virtual
	{
		OFFSET 0.000000 0.000000 0.000000
		CHANNELS 3 Xrotation Yrotation Zrotation
		JOINT RightUpLeg
		{
			OFFSET -18.735201 -5.666702 -4.541200
			CHANNELS 3 Xrotation Yrotation Zrotation
			JOINT RightLeg
			{
				OFFSET 0.018946 -31.938133 0.493100
				CHANNELS 3 Xrotation Yrotation Zrotation
				JOINT RightFoot
				{
					OFFSET -0.018946 -31.938126 -4.336299
					CHANNELS 3 Xrotation Yrotation Zrotation
					JOINT RightToeBase
					{
						OFFSET -0.943001 -26.722004 15.023500
						CHANNELS 3 Xrotation Yrotation Zrotation
						End Site
						{
							OFFSET 0 0 0
						}
					}
				}
			}
		}
	}
	JOINT Hips_virtual
	{
		OFFSET 0.000000 0.000000 0.000000
		CHANNELS 3 Xrotation Yrotation Zrotation
		JOINT Hips
		{
			OFFSET -0.000000 -0.000000 -0.000000
			CHANNELS 3 Xrotation Yrotation Zrotation
			JOINT Spine
			{
				OFFSET 0.000000 10.199997 -0.299500
				CHANNELS 3 Xrotation Yrotation Zrotation
				JOINT Spine1
				{
					OFFSET 0.000000 11.900002 -1.516600
					CHANNELS 3 Xrotation Yrotation Zrotation
					JOINT Spine2
					{
						OFFSET 0.000000 13.600006 -2.842500
						CHANNELS 3 Xrotation Yrotation Zrotation
						JOINT Neck_virtual
						{
							OFFSET 0.000000 0.000000 0.000000
							CHANNELS 3 Xrotation Yrotation Zrotation
							JOINT Neck
							{
								OFFSET 0.000000 9.624100 -2.890100
								CHANNELS 3 Xrotation Yrotation Zrotation
								JOINT Head
								{
									OFFSET 0.000000 14.068802 -1.351900
									CHANNELS 3 Xrotation Yrotation Zrotation
									End Site
									{
										OFFSET 0 0 0
									}
								}
							}
						}
						JOINT LeftShoulder_virtual
						{
							OFFSET 0.000000 0.000000 0.000000
							CHANNELS 3 Xrotation Yrotation Zrotation
							JOINT LeftShoulder
							{
								OFFSET 15.263000 10.923401 -0.547700
								CHANNELS 3 Xrotation Yrotation Zrotation
								JOINT LeftArm
								{
									OFFSET 25.438599 -2.830597 -13.032500
									CHANNELS 3 Xrotation Yrotation Zrotation
									JOINT LeftForeArm
									{
										OFFSET 29.960503 0.000000 0.000000
										CHANNELS 3 Xrotation Yrotation Zrotation
										JOINT LeftHand
										{
											OFFSET 27.849251 0.000000 0.000000
											CHANNELS 3 Xrotation Yrotation Zrotation
											End Site
											{
												OFFSET 0 0 0
											}
										}
									}
								}
							}
						}
						JOINT RightShoulder_virtual
						{
							OFFSET 0.000000 0.000000 0.000000
							CHANNELS 3 Xrotation Yrotation Zrotation
							JOINT RightShoulder
							{
								OFFSET -15.263000 10.923401 -0.547700
								CHANNELS 3 Xrotation Yrotation Zrotation
								JOINT RightArm
								{
									OFFSET -25.438599 -2.830597 -13.032500
									CHANNELS 3 Xrotation Yrotation Zrotation
									JOINT RightForeArm
									{
										OFFSET -29.960503 0.000000 0.000000
										CHANNELS 3 Xrotation Yrotation Zrotation
										JOINT RightHand
										{
											OFFSET -27.849251 0.000000 0.000000
											CHANNELS 3 Xrotation Yrotation Zrotation
											End Site
											{
												OFFSET 0 0 0
											}
										}
									}
								}
							}
						}
					}
				}
			}
		}
	}
}
MOTION
Frames: 12
Frame Time: 0.03333333
1.518239 89.791550 12.368881 0.000000 0.000000 0.000000 -4.661462 10.124557 -6.392624 -49.414301 13.275249 12.850478 50.122974 -5.986416 7.022859 -0.828397 -10.100919 1.158642 0.000000 0.000000 0.000000 -5.802050 -30.039199 10.086869 -42.724151 -14.264794 -6.420583 40.527146 7.039223 -11.834004 -10.715582 10.083181 -3.490401 0.000000 0.000000 0.000000 -2.570962 2.212523 0.379900 -22.545203 5.854955 -2.314228 11.223192 -1.178901 0.418753 5.359189 -0.877450 0.143939 0.000000 0.000000 0.000000 13.897163 0.432213 -0.579127 4.077619 0.114815 0.076250 0.000000 0.000000 0.000000 8.381150 1.325559 -0.180767 2.441714 0.673340 -11.183294 19.951816 -30.100791 -43.137999 30.132746 -68.073190 21.371969 0.000000 0.000000 0.000000 9.882607 -0.556411 0.374471 3.176118 -0.818826 7.128086 9.130313 9.317723 50.274980 7.410674 56.738593 0.941578 0.000000 0.000000 0.000000 
1.526728 89.794296 12.357349 0.000000 0.000000 0.000000 -4.669078 10.162119 -6.397118 -49.428652 13.284717 12.849471 50.111452 -5.989290 7.029793 -0.838355 -10.106601 1.167862 0.000000 0.000000 0.000000 -5.801552 -29.987433 10.078154 -42.710532 -14.248266 -6.422823 40.536684 7.032356 -11.826981 -10.704983 10.074058 -3.484094 0.000000 0.000000 0.000000 -2.567324 2.208958 0.381203 -22.542208 5.842919 -2.312817 11.221124 -1.170415 0.415687 5.358102 -0.873064 0.141896 0.000000 0.000000 0.000000 13.900950 0.436534 -0.582102 4.078817 0.116844 0.074982 0.000000 0.000000 0.000000 8.380730 1.331203 -0.184126 2.443593 0.688374 -11.190804 19.944962 -30.098082 -43.118274 30.126609 -68.070744 21.376737 0.000000 0.000000 0.000000 9.883575 -0.551034 0.370327 3.176918 -0.804060 7.118314 9.125058 9.308462 50.276152 7.404556 56.724506 0.946034 0.000000 0.000000 0.000000 
1.534058 89.795883 12.346045 0.000000 0.000000 0.000000 -4.675755 10.197112 -6.401275 -49.441479 13.293598 12.848545 50.099738 -5.991996 7.035949 -0.848062 -10.111787 1.176067 0.000000 0.000000 0.000000 -5.802152 -29.932956 10.068700 -42.698070 -14.230600 -6.425725 40.549023 7.026304 -11.821052 -10.692698 10.066377 -3.478550 0.000000 0.000000 0.000000 -2.563277 2.204610 0.382846 -22.537895 5.833438 -2.310579 11.218526 -1.163466 0.412264 5.356904 -0.869523 0.139544 0.000000 0.000000 0.000000 13.904514 0.440140 -0.585097 4.079870 0.118643 0.073624 0.000000 0.000000 0.000000 8.380279 1.335832 -0.187582 2.445485 0.700973 -11.198658 19.935782 -30.094131 -43.098098 30.112556 -68.064987 21.374317 0.000000 0.000000 0.000000 9.885019 -0.546026 0.367118 3.178581 -0.789552 7.111993 9.123871 9.302020 50.271207 7.402253 56.710436 0.945833 0.000000 0.000000 0.000000 
1.540043 89.796051 12.335430 0.000000 0.000000 0.000000 -4.681410 10.228710 -6.404935 -49.452721 13.301645 12.847877 50.088250 -5.994533 7.041277 -0.857227 -10.116470 1.183151 0.000000 0.000000 0.000000 -5.804132 -29.877679 10.058936 -42.687689 -14.212428 -6.429100 40.565013 7.021660 -11.816620 -10.678237 10.060961 -3.473857 0.000000 0.000000 0.000000 -2.559055 2.200080 0.384735 -22.532772 5.827598 -2.307479 11.215378 -1.158231 0.408286 5.355586 -0.866901 0.136788 0.000000 0.000000 0.000000 13.907744 0.442847 -0.588103 4.080749 0.120128 0.072170 0.000000 0.000000 0.000000 8.379724 1.339390 -0.191101 2.447307 0.711056 -11.206762 19.924683 -30.089398 -43.077911 30.091727 -68.056367 21.365414 0.000000 0.000000 0.000000 9.886820 -0.541620 0.364805 3.181021 -0.776009 7.108742 9.126931 9.298392 50.260835 7.403710 56.697096 0.941336 0.000000 0.000000 0.000000 
1.544677 89.794312 12.326096 0.000000 0.000000 0.000000 -4.686343 10.256300 -6.407869 -49.462618 13.308558 12.847614 50.077178 -5.996939 7.045662 -0.865734 -10.120634 1.188882 0.000000 0.000000 0.000000 -5.807998 -29.822757 10.048867 -42.680329 -14.194016 -6.433060 40.585042 7.019023 -11.814026 -10.661447 10.058576 -3.470048 0.000000 0.000000 0.000000 -2.554710 2.195031 0.386857 -22.526604 5.824276 -2.303401 11.211677 -1.154871 0.403713 5.354091 -0.865249 0.133640 0.000000 0.000000 0.000000 13.910609 0.444537 -0.590993 4.081465 0.121223 0.070691 0.000000 0.000000 0.000000 8.378973 1.341828 -0.194545 2.448925 0.718350 -11.214564 19.911765 -30.084565 -43.057881 30.065492 -68.045657 21.351176 0.000000 0.000000 0.000000 9.888562 -0.537961 0.363418 3.183842 -0.764063 7.108560 9.133612 9.296859 50.245515 7.408313 56.684454 0.933137 0.000000 0.000000 0.000000 
1.547631 89.790848 12.317348 0.000000 0.000000 0.000000 -4.690458 10.279347 -6.409893 -49.471036 13.314153 12.847932 50.066868 -5.999114 7.049261 -0.873354 -10.124258 1.193559 0.000000 0.000000 0.000000 -5.813488 -29.767894 10.039161 -42.675814 -14.175505 -6.437014 40.609576 7.019242 -11.813296 -10.642082 10.060105 -3.466487 0.000000 0.000000 0.000000 -2.550445 2.189728 0.389100 -22.519595 5.823213 -2.298337 11.207601 -1.153287 0.398481 5.352506 -0.864523 0.130086 0.000000 0.000000 0.000000 13.913001 0.445216 -0.593695 4.081997 0.121918 0.069237 0.000000 0.000000 0.000000 8.378026 1.343189 -0.197920 2.450328 0.722969 -11.222087 19.897164 -30.080051 -43.038415 30.035019 -68.033493 21.332510 0.000000 0.000000 0.000000 9.890099 -0.535153 0.362918 3.186913 -0.754105 7.111064 9.143559 9.296695 50.225796 7.415582 56.672357 0.921767 0.000000 0.000000 0.000000 
1.549035 89.785538 12.310356 0.000000 0.000000 0.000000 -4.693979 10.297819 -6.410915 -49.478133 13.318341 12.848853 50.057319 -6.001244 7.051939 -0.880159 -10.127463 1.196816 0.000000 0.000000 0.000000 -5.820703 -29.715120 10.029717 -42.674554 -14.157429 -6.441182 40.637962 7.022155 -11.814564 -10.620567 10.065431 -3.463602 0.000000 0.000000 0.000000 -2.546443 2.184430 0.391420 -22.512150 5.824106 -2.292306 11.203120 -1.153322 0.392664 5.350773 -0.864608 0.126202 0.000000 0.000000 0.000000 13.914939 0.444967 -0.596118 4.082382 0.122239 0.067872 0.000000 0.000000 0.000000 8.376848 1.343602 -0.201092 2.451444 0.725070 -11.228775 19.880930 -30.076687 -43.019851 30.002217 -68.020993 21.311073 0.000000 0.000000 0.000000 9.891272 -0.533178 0.363315 3.190029 -0.746243 7.116340 9.156781 9.298015 50.202348 7.425368 56.660705 0.907740 0.000000 0.000000 0.000000 
1.549371 89.778511 12.304850 0.000000 0.000000 0.000000 -4.696959 10.311763 -6.410904 -49.483983 13.321112 12.850402 50.048846 -6.003246 7.053918 -0.885936 -10.130273 1.199041 0.000000 0.000000 0.000000 -5.829506 -29.665332 10.020711 -42.676470 -14.140107 -6.445417 40.669672 7.027554 -11.817722 -10.597220 10.074274 -3.461444 0.000000 0.000000 0.000000 -2.542798 2.179344 0.393685 -22.503964 5.826616 -2.285593 11.198577 -1.154767 0.386282 5.349073 -0.865388 0.122016 0.000000 0.000000 0.000000 13.916505 0.443920 -0.598189 4.082688 0.122223 0.066645 0.000000 0.000000 0.000000 8.375391 1.343191 -0.203993 2.452239 0.724901 -11.234415 19.863056 -30.075048 -43.002352 29.968725 -68.009163 21.288398 0.000000 0.000000 0.000000 9.891995 -0.531991 0.364645 3.193086 -0.740539 7.124524 9.172538 9.299736 50.175724 7.436938 56.648609 0.891674 0.000000 0.000000 0.000000 
1.548431 89.770370 12.301067 0.000000 0.000000 0.000000 -4.699477 10.321819 -6.409866 -49.488658 13.322606 12.852579 50.041162 -6.005218 7.055172 -0.890978 -10.132761 1.200128 0.000000 0.000000 0.000000 -5.839985 -29.620184 10.011884 -42.681818 -14.123923 -6.450036 40.703416 7.034741 -11.822713 -10.572989 10.085821 -3.460538 0.000000 0.000000 0.000000 -2.539663 2.174459 0.395799 -22.495448 5.830028 -2.278578 11.194169 -1.157239 0.379422 5.347471 -0.866665 0.117623 0.000000 0.000000 0.000000 13.917734 0.442286 -0.599827 4.082962 0.121952 0.065626 0.000000 0.000000 0.000000 8.373702 1.342203 -0.206578 2.452742 0.723047 -11.238836 19.843735 -30.075468 -42.986052 29.936077 -67.998659 21.265936 0.000000 0.000000 0.000000 9.892340 -0.531444 0.366871 3.196079 -0.736583 7.135605 9.190691 9.301686 50.146754 7.450062 56.635840 0.874130 0.000000 0.000000 0.000000 
1.546634 89.761520 12.299238 0.000000 0.000000 0.000000 -4.701667 10.328201 -6.407984 -49.492391 13.322930 12.855230 50.034612 -6.007127 7.055886 -0.895101 -10.134979 1.200355 0.000000 0.000000 0.000000 -5.851664 -29.580552 10.003288 -42.689973 -14.109189 -6.454994 40.738025 7.043207 -11.829199 -10.548603 10.099361 -3.460879 0.000000 0.000000 0.000000 -2.537225 2.169859 0.397686 -22.487071 5.833617 -2.271369 11.189827 -1.160454 0.372199 5.345901 -0.868279 0.113093 0.000000 0.000000 0.000000 13.918712 0.440303 -0.600965 4.083259 0.121509 0.064860 0.000000 0.000000 0.000000 8.371784 1.340882 -0.208846 2.452991 0.720115 -11.242181 19.823622 -30.078135 -42.971671 29.905229 -67.989950 21.244183 0.000000 0.000000 0.000000 9.892337 -0.531342 0.370054 3.198963 -0.733884 7.149901 9.210717 9.303668 50.115823 7.464485 56.621882 0.855333 0.000000 0.000000 0.000000 
1.543668 89.752838 12.299225 0.000000 0.000000 0.000000 -4.703531 10.331881 -6.405253 -49.495109 13.322308 12.858324 50.028854 -6.008998 7.056120 -0.898615 -10.136954 1.199815 0.000000 0.000000 0.000000 -5.863655 -29.546097 9.995355 -42.699682 -14.096045 -6.459808 40.772401 7.052684 -11.836533 -10.524747 10.114245 -3.461757 0.000000 0.000000 0.000000 -2.535536 2.165062 0.399276 -22.478912 5.835987 -2.264565 11.185884 -1.164028 0.364824 5.344515 -0.870032 0.108574 0.000000 0.000000 0.000000 13.919468 0.438255 -0.601573 4.083609 0.121028 0.064381 0.000000 0.000000 0.000000 8.369608 1.339413 -0.210822 2.452942 0.716615 -11.244644 19.802040 -30.083001 -42.959547 29.876494 -67.983332 21.223638 0.000000 0.000000 0.000000 9.891899 -0.531530 0.374144 3.201570 -0.731979 7.167371 9.232158 9.304988 50.083072 7.479793 56.605565 0.835531 0.000000 0.000000 0.000000 
1.540197 89.744576 12.300627 0.000000 0.000000 0.000000 -4.705046 10.333444 -6.401968 -49.496875 13.321008 12.861628 50.023964 -6.010784 7.055992 -0.901476 -10.138703 1.198721 0.000000 0.000000 0.000000 -5.875302 -29.517106 9.988030 -42.709972 -14.084621 -6.464518 40.805025 7.062464 -11.844239 -10.502420 10.129469 -3.463111 0.000000 0.000000 0.000000 -2.534648 2.160433 0.400487 -22.471266 5.837481 -2.258479 11.182228 -1.167519 0.357539 5.343239 -0.871702 0.104219 0.000000 0.000000 0.000000 13.920071 0.436389 -0.601544 4.084054 0.120589 0.064253 0.000000 0.000000 0.000000 8.367269 1.338088 -0.212480 2.452742 0.713377 -11.246237 19.780791 -30.089784 -42.949240 29.851045 -67.978673 21.205128 0.000000 0.000000 0.000000 9.891180 -0.531758 0.379153 3.203947 -0.730185 7.188227 9.254362 9.305451 50.049191 7.495491 56.586195 0.815290 0.000000 0.000000 0.000000 
